# xmcd
#
# Track frame offsets: 
#        150
#        17812
#        39907
#        61541
#        79125
#        99660
#        122060
#        147313
#        166787
#        183770
#
# Disc length: 2893 seconds
#
# Revision: 0
# Processed by: cddbd v1.5.2PL0 Copyright (c) Steve Scherf et al.
# Submitted via: ExactAudioCopy v1.2
#
DISCID=730b4b0a
DTITLE=John Mayall - Nobody Told Me
DYEAR=2019
DGENRE=Blues
TTITLE0=What Have I Done Wrong
TTITLE1=The Moon Is Full
TTITLE2=Evil And Here To Stay
TTITLE3=That's What Love Will Make You Do
TTITLE4=Distance Lonesome Train
TTITLE5=Delta Hurricane
TTITLE6=The Hurt Inside
TTITLE7=It's So Tough
TTITLE8=Like It Like You Do
TTITLE9=Nobody Told Me
EXTD=
EXTT0=
EXTT1=
EXTT2=
EXTT3=
EXTT4=
EXTT5=
EXTT6=
EXTT7=
EXTT8=
EXTT9=
PLAYORDER=
